<?xml version="1.0" standalone="no"?><!DOCTYPE svg PUBLIC "-//W3C//DTD SVG 1.1//EN" "http://www.w3.org/Graphics/SVG/1.1/DTD/svg11.dtd"><svg class="icon" width="200px" height="200.00px" viewBox="0 0 1024 1024" version="1.1" xmlns="http://www.w3.org/2000/svg"><path d="M509.155556 56.888889c100.124444 0 181.361778 79.075556 181.361777 176.526222 0 97.507556-81.180444 176.583111-181.304889 176.583111-100.124444 0-181.361778-79.075556-181.361777-176.583111C327.850667 135.964444 409.031111 56.888889 509.212444 56.888889z m0 82.375111c-55.125333 0-98.929778 42.666667-98.929778 94.151111 0 51.541333 43.804444 94.208 98.986666 94.208 55.125333 0 98.929778-42.666667 98.929778-94.208 0-51.484444-43.804444-94.151111-98.986666-94.151111z" fill="#currentColor" /><path d="M550.4 351.118222v139.662222H467.968V351.118222z" fill="#currentColor" /><path d="M750.933333 427.633778c53.134222 0 97.052444 40.220444 101.319111 91.818666l0.341334 8.248889v69.404445H770.275556v-69.404445a18.147556 18.147556 0 0 0-15.36-17.294222l-3.868445-0.341333H267.377778c-9.557333 0-17.123556 6.257778-18.887111 14.165333l-0.398223 3.413333v69.404445H165.774222v-69.404445c0-52.679111 41.301333-95.516444 93.297778-99.669333l8.362667-0.341333h483.555555z" fill="#currentColor" /><path d="M811.406222 557.112889c100.124444 0 181.361778 79.075556 181.361778 176.583111 0 97.507556-81.237333 176.526222-181.361778 176.526222-100.124444 0-181.304889-79.075556-181.304889-176.526222 0-97.507556 81.180444-176.583111 181.304889-176.583111z m0 82.375111c-55.182222 0-98.986667 42.666667-98.986666 94.208 0 51.484444 43.804444 94.151111 98.986666 94.151111s98.986667-42.666667 98.986667-94.151111c0-51.541333-43.804444-94.208-98.986667-94.208zM206.961778 557.112889c100.124444 0 181.361778 79.075556 181.361778 176.583111C388.323556 831.146667 307.086222 910.222222 206.961778 910.222222c-100.124444 0-181.304889-79.075556-181.304889-176.526222 0-97.507556 81.180444-176.583111 181.304889-176.583111z m0 82.375111c-55.182222 0-98.986667 42.666667-98.986667 94.208 0 51.484444 43.804444 94.151111 98.986667 94.151111s98.986667-42.666667 98.986666-94.151111c0-51.541333-43.804444-94.208-98.986666-94.208z" fill="#currentColor" /></svg>