<?xml version="1.0" standalone="no"?><!DOCTYPE svg PUBLIC "-//W3C//DTD SVG 1.1//EN" "http://www.w3.org/Graphics/SVG/1.1/DTD/svg11.dtd"><svg class="icon" width="200px" height="200.00px" viewBox="0 0 1024 1024" version="1.1" xmlns="http://www.w3.org/2000/svg"><path d="M512 578.23c-21.86 0-39.58 17.93-39.58 40.04V746.4c0 22.11 17.72 40.04 39.58 40.04s39.58-17.93 39.58-40.04V618.27c0-22.11-17.72-40.04-39.58-40.04zM944.43 345.02L607.76 89.36c-39.74-30.17-94.41-32.03-136.05-4.61L81.74 341.48c-18.32 12.06-23.51 36.86-11.58 55.4 11.92 18.53 36.44 23.78 54.76 11.72l23.49-15.46c1.46-0.96 3.41 0.09 3.41 1.84V838.5c0 66.23 53.27 120.12 118.74 120.12h482.88c65.47 0 118.74-53.88 118.74-120.12V394.72c0-1.82 2.08-2.85 3.53-1.75l21.19 16.09c7.12 5.41 15.46 8.02 23.73 8.02 12.03 0 23.91-5.53 31.69-16 13.13-17.69 9.59-42.79-7.89-56.06z m-151.41-13.03v506.5c0 22.08-17.76 40.04-39.58 40.04H270.56c-21.82 0-39.58-17.96-39.58-40.04V342c0-2.02 1.01-3.9 2.7-5.01l281.21-185.13c13.88-9.14 32.1-8.52 45.35 1.54l231.93 176.11c0.56 0.42 0.88 1.08 0.87 1.78-0.02 0.24-0.02 0.47-0.02 0.7z" fill="#currentColor"/></svg>