<?xml version="1.0" standalone="no"?><!DOCTYPE svg PUBLIC "-//W3C//DTD SVG 1.1//EN" "http://www.w3.org/Graphics/SVG/1.1/DTD/svg11.dtd"><svg class="icon" width="200px" height="200.00px" viewBox="0 0 1024 1024" version="1.1" xmlns="http://www.w3.org/2000/svg"><path d="M737.848889 673.905778a43.121778 43.121778 0 0 0-17.180445-64.056889 488.618667 488.618667 0 0 0-73.386666-27.534222c95.459556-48.810667 160.824889-147.114667 160.824889-260.778667 0-162.133333-132.892444-293.546667-296.789334-293.546667-163.84 0-296.732444 131.413333-296.732444 293.546667 0 113.777778 65.536 212.195556 161.166222 260.949333-170.666667 48.753778-303.104 186.709333-341.674667 359.822223a43.463111 43.463111 0 0 0 42.666667 52.792888 43.690667 43.690667 0 0 0 42.666667-34.247111c39.879111-177.777778 200.419556-311.182222 391.964444-311.182222 61.269333 0 119.409778 13.710222 171.463111 38.115556 19.456 9.216 42.666667 3.584 55.011556-13.880889zM301.852444 321.536c0-114.232889 93.980444-207.246222 209.464889-207.246222 115.484444 0 209.521778 93.013333 209.521778 207.246222 0 114.289778-93.980444 207.246222-209.521778 207.246222-115.484444 0-209.464889-92.956444-209.464889-207.246222zM633.514667 796.444444c0 23.893333 19.569778 43.235556 43.690666 43.235556h279.324445c24.064 0 43.576889-19.342222 43.576889-43.235556a43.406222 43.406222 0 0 0-43.633778-43.121777h-279.324445a43.406222 43.406222 0 0 0-43.633777 43.121777z m322.958222 112.298667h-279.324445a43.406222 43.406222 0 0 0-43.633777 43.178667c0 23.836444 19.569778 43.178667 43.690666 43.178666h279.324445c24.064 0 43.576889-19.342222 43.576889-43.235555a43.406222 43.406222 0 0 0-43.633778-43.121778z" fill="#currentColor" /></svg>